<svg width="256" height="256" viewBox="0 0 256 256" fill="none" xmlns="http://www.w3.org/2000/svg">
	<path fill-rule="evenodd" clip-rule="evenodd" d="M128.562 0.321259L129.157 2.42485C129.199 2.57375 129.317 2.68983 129.468 2.73057L131.491 3.27721C131.928 3.39518 131.928 4.00784 131.491 4.12581L129.468 4.67237C129.317 4.71315 129.199 4.82944 129.157 4.97856L128.562 7.09132C128.441 7.51937 127.828 7.52063 127.706 7.09309L127.1 4.97743C127.057 4.82894 126.939 4.71336 126.789 4.67287L124.755 4.12594C124.318 4.00833 124.318 3.39469 124.755 3.27708L126.789 2.73006C126.94 2.68962 127.058 2.57425 127.1 2.42597L127.706 0.319488C127.829 -0.107423 128.441 -0.106156 128.562 0.321259ZM178.475 2.67946L177.999 0.996593C177.902 0.654661 177.412 0.653648 177.314 0.995177L176.829 2.68037C176.795 2.79898 176.701 2.89128 176.58 2.92363L174.953 3.36125C174.603 3.45533 174.603 3.94625 174.953 4.04034L176.58 4.47789C176.701 4.51028 176.795 4.60274 176.829 4.72153L177.314 6.41406C177.412 6.75609 177.902 6.75508 177.999 6.41264L178.475 4.72243C178.509 4.60314 178.603 4.51011 178.724 4.47748L180.342 4.04023C180.692 3.94586 180.692 3.45573 180.342 3.36135L178.724 2.92404C178.603 2.89145 178.509 2.79859 178.475 2.67946ZM103.881 22.9783L104.754 26.2038C104.816 26.4321 104.989 26.6101 105.211 26.6726L108.178 27.5108C108.819 27.6917 108.819 28.6311 108.178 28.8119L105.211 29.65C104.99 29.7125 104.816 29.8909 104.755 30.1195L103.881 33.3591C103.705 34.0154 102.805 34.0173 102.626 33.3618L101.737 30.1178C101.675 29.8901 101.502 29.7129 101.281 29.6508L98.2983 28.8122C97.6569 28.6318 97.6569 27.6909 98.2983 27.5106L101.281 26.6718C101.502 26.6098 101.675 26.4329 101.738 26.2055L102.626 22.9756C102.806 22.321 103.704 22.3229 103.881 22.9783ZM179.509 50.7304L178.437 46.8038C178.219 46.0059 177.118 46.0035 176.897 46.8004L175.806 50.7326C175.73 51.0093 175.517 51.2247 175.247 51.3002L171.585 52.3213C170.798 52.5408 170.798 53.6863 171.585 53.9058L175.246 54.9268C175.517 55.0023 175.73 55.2181 175.806 55.4953L176.897 59.4445C177.117 60.2426 178.22 60.2402 178.437 59.4412L179.509 55.4974C179.585 55.219 179.798 55.002 180.069 54.9258L183.711 53.9056C184.497 53.6854 184.497 52.5417 183.711 52.3215L180.069 51.3011C179.797 51.2251 179.585 51.0084 179.509 50.7304ZM55.3281 75.9394L54.2565 72.0127C54.0388 71.2149 52.9371 71.2125 52.7161 72.0094L51.6257 75.9416C51.5489 76.2183 51.3365 76.4337 51.0659 76.5092L47.4047 77.5303C46.6175 77.7498 46.6176 78.8953 47.4047 79.1148L51.0653 80.1358C51.3363 80.2113 51.5488 80.4271 51.6254 80.7043L52.7158 84.6535C52.9362 85.4516 54.0397 85.4492 54.2568 84.6502L55.3285 80.7064C55.4041 80.428 55.6168 80.211 55.8885 80.1348L59.53 79.1146C60.3159 78.8944 60.3159 77.7507 59.53 77.5305L55.888 76.5101C55.6166 76.4341 55.404 76.2174 55.3281 75.9394ZM129.703 90.6277L131.846 98.3409C131.997 98.8869 132.423 99.3125 132.965 99.4619L140.249 101.466C141.821 101.899 141.821 104.145 140.249 104.578L132.967 106.582C132.423 106.731 131.998 107.158 131.846 107.704L129.703 115.451C129.269 117.021 127.062 117.025 126.621 115.458L124.44 107.7C124.287 107.156 123.862 106.732 123.32 106.584L115.999 104.578C114.425 104.147 114.425 101.897 115.999 101.466L123.321 99.46C123.863 99.3117 124.287 98.8887 124.441 98.345L126.622 90.6212C127.064 89.0559 129.267 89.0605 129.703 90.6277ZM104.817 115.831L106.96 123.544C107.112 124.09 107.537 124.516 108.08 124.665L115.364 126.67C116.936 127.102 116.936 129.348 115.364 129.781L108.081 131.785C107.538 131.935 107.112 132.361 106.961 132.908L104.818 140.655C104.383 142.224 102.177 142.229 101.736 140.661L99.5549 132.904C99.4018 132.359 98.9767 131.935 98.4347 131.787L91.1135 129.782C89.5392 129.35 89.5392 127.1 91.1135 126.669L98.4359 124.663C98.9772 124.515 99.402 124.092 99.5555 123.548L101.736 115.825C102.178 114.259 104.382 114.264 104.817 115.831ZM156.485 123.544L154.342 115.831C153.906 114.264 151.703 114.259 151.261 115.825L149.08 123.548C148.926 124.092 148.502 124.515 147.96 124.663L140.638 126.669C139.064 127.1 139.064 129.35 140.638 129.782L147.959 131.787C148.501 131.935 148.926 132.359 149.079 132.904L151.26 140.661C151.701 142.229 153.908 142.224 154.342 140.655L156.485 132.908C156.637 132.361 157.062 131.935 157.606 131.785L164.889 129.781C166.46 129.348 166.46 127.102 164.889 126.67L157.605 124.665C157.062 124.516 156.637 124.09 156.485 123.544ZM129.703 140.541L131.846 148.254C131.997 148.8 132.423 149.226 132.965 149.375L140.249 151.38C141.821 151.812 141.821 154.059 140.249 154.491L132.967 156.495C132.423 156.645 131.998 157.071 131.846 157.618L129.703 165.365C129.269 166.934 127.062 166.939 126.621 165.371L124.44 157.614C124.287 157.069 123.862 156.646 123.32 156.497L115.999 154.492C114.425 154.06 114.425 151.81 115.999 151.379L123.321 149.373C123.863 149.225 124.287 148.802 124.441 148.258L126.622 140.535C127.064 138.969 129.267 138.974 129.703 140.541ZM130.261 200.137L129.03 195.649C128.78 194.738 127.515 194.735 127.262 195.646L126.01 200.139C125.922 200.456 125.678 200.702 125.367 200.788L121.163 201.955C120.26 202.206 120.26 203.515 121.163 203.766L125.366 204.933C125.677 205.019 125.921 205.266 126.009 205.583L127.261 210.096C127.514 211.008 128.781 211.005 129.031 210.092L130.261 205.585C130.348 205.267 130.592 205.019 130.904 204.932L135.085 203.766C135.987 203.514 135.987 202.207 135.085 201.955L130.903 200.789C130.592 200.702 130.348 200.455 130.261 200.137ZM54.3733 121.026L55.6037 125.513C55.6908 125.831 55.9348 126.079 56.2464 126.166L60.428 127.332C61.3304 127.583 61.3304 128.89 60.428 129.142L56.2471 130.308C55.9351 130.395 55.6909 130.643 55.604 130.961L54.3736 135.469C54.1243 136.382 52.8574 136.384 52.6043 135.472L51.3523 130.959C51.2645 130.642 51.0204 130.396 50.7093 130.309L46.5064 129.142C45.6026 128.892 45.6026 127.582 46.5064 127.332L50.7099 126.165C51.0207 126.078 51.2646 125.832 51.3527 125.516L52.6046 121.022C52.8583 120.111 54.1233 120.114 54.3733 121.026ZM55.3281 175.766L54.2565 171.84C54.0388 171.042 52.9371 171.039 52.7161 171.836L51.6257 175.768C51.5489 176.045 51.3365 176.261 51.0659 176.336L47.4047 177.357C46.6175 177.577 46.6176 178.722 47.4047 178.942L51.0653 179.963C51.3363 180.038 51.5488 180.254 51.6254 180.531L52.7158 184.48C52.9362 185.279 54.0397 185.276 54.2568 184.477L55.3285 180.533C55.4041 180.255 55.6168 180.038 55.8885 179.962L59.53 178.941C60.3159 178.721 60.3159 177.578 59.53 177.357L55.888 176.337C55.6166 176.261 55.404 176.044 55.3281 175.766ZM203.323 171.84L204.394 175.766C204.47 176.044 204.683 176.261 204.954 176.337L208.596 177.357C209.382 177.578 209.382 178.721 208.596 178.941L204.955 179.962C204.683 180.038 204.47 180.255 204.395 180.533L203.323 184.477C203.106 185.276 202.003 185.279 201.782 184.48L200.692 180.531C200.615 180.254 200.403 180.038 200.132 179.963L196.471 178.942C195.684 178.722 195.684 177.577 196.471 177.357L200.132 176.336C200.403 176.261 200.615 176.045 200.692 175.768L201.782 171.836C202.003 171.039 203.105 171.042 203.323 171.84ZM203.323 72.0127L204.394 75.9394C204.47 76.2174 204.683 76.4341 204.954 76.5101L208.596 77.5305C209.382 77.7507 209.382 78.8944 208.596 79.1146L204.955 80.1348C204.683 80.211 204.47 80.428 204.395 80.7064L203.323 84.6502C203.106 85.4492 202.003 85.4516 201.782 84.6535L200.692 80.7043C200.615 80.4271 200.403 80.2113 200.132 80.1358L196.471 79.1148C195.684 78.8953 195.684 77.7498 196.471 77.5303L200.132 76.5092C200.403 76.4337 200.615 76.2183 200.692 75.9416L201.782 72.0094C202.003 71.2125 203.105 71.2149 203.323 72.0127ZM79.1418 46.8038L80.2134 50.7304C80.2893 51.0084 80.5019 51.2251 80.7733 51.3011L84.4153 52.3215C85.2012 52.5417 85.2012 53.6854 84.4153 53.9056L80.7738 54.9258C80.5021 55.002 80.2894 55.219 80.2138 55.4974L79.1421 59.4412C78.9249 60.2402 77.8215 60.2426 77.6011 59.4445L76.5107 55.4953C76.4341 55.2181 76.2216 55.0023 75.9506 54.9268L72.29 53.9058C71.5029 53.6863 71.5029 52.5408 72.29 52.3213L75.9512 51.3002C76.2218 51.2247 76.4342 51.0093 76.511 50.7326L77.6014 46.8004C77.8224 46.0035 78.9241 46.0059 79.1418 46.8038ZM179.509 200.477L178.437 196.55C178.219 195.752 177.118 195.75 176.897 196.547L175.806 200.479C175.73 200.755 175.517 200.971 175.247 201.046L171.585 202.067C170.798 202.287 170.798 203.432 171.585 203.652L175.246 204.673C175.517 204.748 175.73 204.964 175.806 205.241L176.897 209.191C177.117 209.989 178.22 209.986 178.437 209.187L179.509 205.243C179.585 204.965 179.798 204.748 180.069 204.672L183.711 203.652C184.497 203.431 184.497 202.288 183.711 202.068L180.069 201.047C179.797 200.971 179.585 200.755 179.509 200.477ZM79.1418 196.55L80.2134 200.477C80.2893 200.755 80.5019 200.971 80.7733 201.047L84.4153 202.068C85.2012 202.288 85.2012 203.431 84.4153 203.652L80.7738 204.672C80.5021 204.748 80.2894 204.965 80.2138 205.243L79.1421 209.187C78.9249 209.986 77.8215 209.989 77.6011 209.191L76.5107 205.241C76.4341 204.964 76.2216 204.748 75.9506 204.673L72.29 203.652C71.5029 203.432 71.5029 202.287 72.29 202.067L75.9512 201.046C76.2218 200.971 76.4342 200.755 76.511 200.479L77.6014 196.547C77.8224 195.75 78.9241 195.752 79.1418 196.55ZM104.754 225.863L103.881 222.638C103.704 221.983 102.806 221.981 102.626 222.635L101.738 225.865C101.675 226.092 101.502 226.269 101.281 226.331L98.2983 227.17C97.6569 227.35 97.6569 228.291 98.2983 228.472L101.281 229.31C101.502 229.372 101.675 229.55 101.737 229.777L102.626 233.021C102.805 233.677 103.705 233.675 103.881 233.019L104.755 229.779C104.816 229.55 104.99 229.372 105.211 229.31L108.178 228.472C108.819 228.291 108.819 227.351 108.178 227.17L105.211 226.332C104.989 226.27 104.816 226.092 104.754 225.863ZM30.3443 101.074L29.4712 97.8485C29.2938 97.1931 28.3961 97.1912 28.216 97.8458L27.3275 101.076C27.265 101.303 27.0919 101.48 26.8714 101.542L23.8882 102.381C23.2468 102.561 23.2468 103.502 23.8882 103.682L26.8709 104.521C27.0917 104.583 27.2649 104.76 27.3273 104.988L28.2158 108.232C28.3953 108.888 29.2945 108.886 29.4714 108.229L30.3446 104.99C30.4062 104.761 30.5796 104.583 30.801 104.52L33.7681 103.682C34.4085 103.501 34.4085 102.562 33.7681 102.381L30.8005 101.543C30.5793 101.48 30.4061 101.302 30.3443 101.074ZM227.816 97.8485L228.689 101.074C228.751 101.302 228.924 101.48 229.145 101.543L232.113 102.381C232.753 102.562 232.753 103.501 232.113 103.682L229.146 104.52C228.924 104.583 228.751 104.761 228.689 104.99L227.816 108.229C227.639 108.886 226.74 108.888 226.56 108.232L225.672 104.988C225.609 104.76 225.436 104.583 225.215 104.521L222.233 103.682C221.591 103.502 221.591 102.561 222.233 102.381L225.216 101.542C225.437 101.48 225.61 101.303 225.672 101.076L226.561 97.8458C226.741 97.1912 227.638 97.1931 227.816 97.8485ZM30.3443 150.993L29.4712 147.768C29.2938 147.112 28.3961 147.11 28.216 147.765L27.3275 150.995C27.265 151.222 27.0919 151.399 26.8714 151.461L23.8882 152.3C23.2468 152.48 23.2468 153.421 23.8882 153.602L26.8709 154.44C27.0917 154.502 27.2649 154.679 27.3273 154.907L28.2158 158.151C28.3953 158.807 29.2945 158.805 29.4714 158.148L30.3446 154.909C30.4062 154.68 30.5796 154.502 30.801 154.439L33.7681 153.601C34.4085 153.42 34.4085 152.481 33.7681 152.3L30.8005 151.462C30.5793 151.4 30.4061 151.222 30.3443 150.993ZM227.816 147.768L228.689 150.993C228.751 151.222 228.924 151.4 229.145 151.462L232.113 152.3C232.753 152.481 232.753 153.42 232.113 153.601L229.146 154.439C228.924 154.502 228.751 154.68 228.689 154.909L227.816 158.148C227.639 158.805 226.74 158.807 226.56 158.151L225.672 154.907C225.609 154.679 225.436 154.502 225.215 154.44L222.233 153.602C221.591 153.421 221.591 152.48 222.233 152.3L225.216 151.461C225.437 151.399 225.61 151.222 225.672 150.995L226.561 147.765C226.741 147.11 227.638 147.112 227.816 147.768ZM154.526 225.863L153.653 222.638C153.475 221.983 152.577 221.981 152.397 222.635L151.509 225.865C151.446 226.092 151.273 226.269 151.053 226.331L148.07 227.17C147.428 227.35 147.428 228.291 148.07 228.472L151.052 229.31C151.273 229.372 151.446 229.55 151.509 229.777L152.397 233.021C152.577 233.677 153.476 233.675 153.653 233.019L154.526 229.779C154.588 229.55 154.761 229.372 154.982 229.31L157.949 228.472C158.59 228.291 158.59 227.351 157.949 227.17L154.982 226.332C154.761 226.27 154.588 226.092 154.526 225.863ZM153.653 22.9783L154.526 26.2038C154.588 26.4321 154.761 26.6101 154.982 26.6726L157.949 27.5108C158.59 27.6917 158.59 28.6311 157.949 28.8119L154.982 29.65C154.761 29.7125 154.588 29.8909 154.526 30.1195L153.653 33.3591C153.476 34.0154 152.577 34.0173 152.397 33.3618L151.509 30.1178C151.446 29.8901 151.273 29.7129 151.052 29.6508L148.07 28.8122C147.428 28.6318 147.428 27.6909 148.07 27.5106L151.053 26.6718C151.273 26.6098 151.446 26.4329 151.509 26.2055L152.397 22.9756C152.577 22.321 153.475 22.3229 153.653 22.9783ZM81.1099 99.5406L79.5223 93.7908C79.1998 92.6225 77.5675 92.619 77.2402 93.7859L75.6248 99.5437C75.5111 99.9489 75.1964 100.264 74.7954 100.375L69.3715 101.87C68.2053 102.191 68.2053 103.869 69.3715 104.19L74.7946 105.685C75.196 105.796 75.5109 106.112 75.6243 106.518L77.2398 112.3C77.5663 113.469 79.201 113.466 79.5227 112.296L81.1104 106.521C81.2224 106.113 81.5375 105.795 81.9401 105.684L87.3348 104.19C88.4992 103.867 88.4992 102.193 87.3348 101.87L81.9393 100.376C81.5372 100.265 81.2223 99.9476 81.1099 99.5406ZM178.818 93.7908L180.405 99.5406C180.518 99.9476 180.833 100.265 181.235 100.376L186.63 101.87C187.795 102.193 187.795 103.867 186.63 104.19L181.235 105.684C180.833 105.795 180.518 106.113 180.406 106.521L178.818 112.296C178.496 113.466 176.862 113.469 176.535 112.3L174.92 106.518C174.806 106.112 174.491 105.796 174.09 105.685L168.667 104.19C167.501 103.869 167.501 102.191 168.667 101.87L174.091 100.375C174.492 100.264 174.806 99.9489 174.92 99.5437L176.536 93.7859C176.863 92.619 178.495 92.6225 178.818 93.7908ZM81.1099 149.454L79.5223 143.704C79.1998 142.536 77.5675 142.532 77.2402 143.699L75.6248 149.457C75.5111 149.862 75.1964 150.178 74.7954 150.288L69.3715 151.783C68.2053 152.105 68.2053 153.782 69.3715 154.104L74.7946 155.599C75.196 155.709 75.5109 156.025 75.6243 156.431L77.2398 162.214C77.5663 163.383 79.201 163.379 79.5227 162.209L81.1104 156.434C81.2224 156.027 81.5375 155.709 81.9401 155.597L87.3348 154.103C88.4992 153.781 88.4992 152.106 87.3348 151.784L81.9393 150.29C81.5372 150.178 81.2223 149.861 81.1099 149.454ZM178.818 143.704L180.405 149.454C180.518 149.861 180.833 150.178 181.235 150.29L186.63 151.784C187.795 152.106 187.795 153.781 186.63 154.103L181.235 155.597C180.833 155.709 180.518 156.027 180.406 156.434L178.818 162.209C178.496 163.379 176.862 163.383 176.535 162.214L174.92 156.431C174.806 156.025 174.491 155.709 174.09 155.599L168.667 154.104C167.501 153.782 167.501 152.105 168.667 151.783L174.091 150.288C174.492 150.178 174.806 149.862 174.92 149.457L176.536 143.699C176.863 142.532 178.495 142.536 178.818 143.704ZM105.995 74.8304L104.408 69.0806C104.085 67.9123 102.453 67.9088 102.125 69.0757L100.51 74.8335C100.396 75.2387 100.082 75.5541 99.6807 75.6646L94.2568 77.1598C93.0906 77.4813 93.0906 79.1586 94.2568 79.48L99.6799 80.975C100.081 81.0857 100.396 81.4016 100.51 81.8074L102.125 87.5902C102.452 88.7588 104.086 88.7554 104.408 87.5854L105.996 81.8105C106.108 81.4029 106.423 81.0851 106.825 80.9736L112.22 79.4797C113.385 79.1572 113.385 77.4826 112.22 77.1602L106.825 75.666C106.422 75.5547 106.108 75.2374 105.995 74.8304ZM154.179 69.0806L155.766 74.8304C155.879 75.2374 156.193 75.5547 156.596 75.666L161.991 77.1602C163.155 77.4826 163.155 79.1572 161.991 79.4797L156.596 80.9736C156.194 81.0851 155.879 81.4029 155.767 81.8105L154.179 87.5854C153.857 88.7554 152.223 88.7588 151.896 87.5902L150.281 81.8074C150.167 81.4016 149.852 81.0857 149.451 80.975L144.028 79.48C142.862 79.1586 142.862 77.4813 144.028 77.1598L149.452 75.6646C149.853 75.5541 150.167 75.2387 150.281 74.8335L151.896 69.0757C152.224 67.9088 153.856 67.9123 154.179 69.0806ZM105.995 174.657L104.408 168.907C104.085 167.739 102.453 167.736 102.125 168.903L100.51 174.66C100.396 175.066 100.082 175.381 99.6807 175.492L94.2568 176.987C93.0906 177.308 93.0906 178.985 94.2568 179.307L99.6799 180.802C100.081 180.913 100.396 181.228 100.51 181.634L102.125 187.417C102.452 188.586 104.086 188.582 104.408 187.412L105.996 181.637C106.108 181.23 106.423 180.912 106.825 180.801L112.22 179.307C113.385 178.984 113.385 177.31 112.22 176.987L106.825 175.493C106.422 175.382 106.108 175.064 105.995 174.657ZM154.179 168.907L155.766 174.657C155.879 175.064 156.193 175.382 156.596 175.493L161.991 176.987C163.155 177.31 163.155 178.984 161.991 179.307L156.596 180.801C156.194 180.912 155.879 181.23 155.767 181.637L154.179 187.412C153.857 188.582 152.223 188.586 151.896 187.417L150.281 181.634C150.167 181.228 149.852 180.913 149.451 180.802L144.028 179.307C142.862 178.985 142.862 177.308 144.028 176.987L149.452 175.492C149.853 175.381 150.167 175.066 150.281 174.66L151.896 168.903C152.224 167.736 153.856 167.739 154.179 168.907ZM204.67 125.513L203.44 121.026C203.19 120.114 201.925 120.111 201.671 121.022L200.419 125.516C200.331 125.832 200.087 126.078 199.777 126.165L195.573 127.332C194.669 127.582 194.669 128.892 195.573 129.142L199.776 130.309C200.087 130.396 200.331 130.642 200.419 130.959L201.671 135.472C201.924 136.384 203.191 136.382 203.44 135.469L204.671 130.961C204.758 130.643 205.002 130.395 205.314 130.308L209.495 129.142C210.397 128.89 210.397 127.583 209.495 127.332L205.313 126.166C205.002 126.079 204.757 125.831 204.67 125.513ZM129.03 45.9033L130.261 50.391C130.348 50.7086 130.592 50.9563 130.903 51.0432L135.085 52.2093C135.987 52.461 135.987 53.768 135.085 54.0197L130.904 55.1857C130.592 55.2727 130.348 55.5208 130.261 55.8389L129.031 60.3461C128.781 61.2593 127.514 61.262 127.261 60.3499L126.009 55.8365C125.921 55.5197 125.677 55.2731 125.366 55.1868L121.163 54.02C120.26 53.7691 120.26 52.46 121.163 52.2091L125.367 51.0421C125.678 50.9558 125.922 50.7097 126.01 50.3934L127.262 45.8995C127.515 44.9888 128.78 44.9915 129.03 45.9033ZM129.157 251.012L128.562 248.908C128.441 248.481 127.829 248.48 127.706 248.906L127.1 251.013C127.058 251.161 126.94 251.277 126.789 251.317L124.755 251.864C124.318 251.982 124.318 252.595 124.755 252.713L126.789 253.26C126.939 253.3 127.057 253.416 127.1 253.564L127.706 255.68C127.828 256.108 128.441 256.106 128.562 255.678L129.157 253.566C129.199 253.416 129.317 253.3 129.468 253.259L131.491 252.713C131.928 252.595 131.928 251.982 131.491 251.864L129.468 251.318C129.317 251.277 129.199 251.161 129.157 251.012ZM177.999 249.584L178.475 251.266C178.509 251.386 178.603 251.478 178.724 251.511L180.342 251.948C180.692 252.043 180.692 252.533 180.342 252.627L178.724 253.064C178.603 253.097 178.509 253.19 178.475 253.309L177.999 255C177.902 255.342 177.412 255.343 177.314 255.001L176.829 253.308C176.795 253.19 176.701 253.097 176.58 253.065L174.953 252.627C174.603 252.533 174.603 252.042 174.953 251.948L176.58 251.511C176.701 251.478 176.795 251.386 176.829 251.267L177.314 249.582C177.412 249.241 177.902 249.242 177.999 249.584ZM252.655 75.6203L253.131 77.3031C253.165 77.4222 253.259 77.5151 253.38 77.5477L254.999 77.985C255.348 78.0794 255.348 78.5695 254.999 78.6639L253.38 79.1011C253.259 79.1338 253.165 79.2268 253.131 79.3461L252.655 81.0363C252.558 81.3787 252.068 81.3798 251.97 81.0377L251.485 79.3452C251.451 79.2264 251.357 79.1339 251.236 79.1016L249.61 78.664C249.26 78.5699 249.26 78.079 249.61 77.9849L251.237 77.5473C251.357 77.5149 251.451 77.4226 251.486 77.304L251.97 75.6188C252.068 75.2773 252.558 75.2783 252.655 75.6203ZM253.131 177.136L252.655 175.453C252.558 175.111 252.068 175.11 251.97 175.451L251.486 177.137C251.451 177.255 251.357 177.348 251.237 177.38L249.61 177.818C249.26 177.912 249.26 178.403 249.61 178.497L251.236 178.934C251.357 178.967 251.451 179.059 251.485 179.178L251.97 180.87C252.068 181.212 252.558 181.211 252.655 180.869L253.131 179.179C253.165 179.059 253.259 178.966 253.38 178.934L254.999 178.497C255.348 178.402 255.348 177.912 254.999 177.818L253.38 177.38C253.259 177.348 253.165 177.255 253.131 177.136ZM4.04689 75.6203L4.52316 77.3031C4.55687 77.4222 4.65134 77.5151 4.77197 77.5477L6.39064 77.985C6.73996 78.0794 6.73995 78.5695 6.39064 78.6639L4.77222 79.1011C4.65146 79.1338 4.55692 79.2268 4.5233 79.3461L4.047 81.0363C3.9505 81.3787 3.46007 81.3798 3.36213 81.0377L2.87748 79.3452C2.84346 79.2264 2.749 79.1339 2.62856 79.1016L1.00163 78.664C0.651785 78.5699 0.651784 78.079 1.00163 77.9849L2.62881 77.5473C2.74911 77.5149 2.84351 77.4226 2.87762 77.304L3.36224 75.6188C3.46045 75.2773 3.95012 75.2783 4.04689 75.6203ZM4.52316 177.136L4.04689 175.453C3.95012 175.111 3.46045 175.11 3.36224 175.451L2.87762 177.137C2.84351 177.255 2.74911 177.348 2.62881 177.38L1.00163 177.818C0.651784 177.912 0.651785 178.403 1.00163 178.497L2.62856 178.934C2.749 178.967 2.84346 179.059 2.87748 179.178L3.36213 180.87C3.46007 181.212 3.9505 181.211 4.047 180.869L4.5233 179.179C4.55692 179.059 4.65146 178.966 4.77222 178.934L6.39064 178.497C6.73995 178.402 6.73996 177.912 6.39064 177.818L4.77197 177.38C4.65134 177.348 4.55687 177.255 4.52316 177.136ZM78.7032 249.584L79.1794 251.266C79.2131 251.386 79.3076 251.478 79.4282 251.511L81.0469 251.948C81.3962 252.043 81.3962 252.533 81.0469 252.627L79.4285 253.064C79.3077 253.097 79.2132 253.19 79.1796 253.309L78.7033 255C78.6068 255.342 78.1163 255.343 78.0184 255.001L77.5337 253.308C77.4997 253.19 77.4053 253.097 77.2848 253.065L75.6579 252.627C75.308 252.533 75.308 252.042 75.6579 251.948L77.2851 251.511C77.4054 251.478 77.4998 251.386 77.5339 251.267L78.0185 249.582C78.1167 249.241 78.6064 249.242 78.7032 249.584ZM79.1794 2.67946L78.7032 0.996593C78.6064 0.654661 78.1167 0.653648 78.0185 0.995177L77.5339 2.68037C77.4998 2.79898 77.4054 2.89128 77.2851 2.92363L75.6579 3.36125C75.308 3.45533 75.308 3.94625 75.6579 4.04034L77.2848 4.47789C77.4053 4.51028 77.4997 4.60274 77.5337 4.72153L78.0184 6.41406C78.1163 6.75609 78.6068 6.75508 78.7033 6.41264L79.1796 4.72243C79.2132 4.60314 79.3077 4.51011 79.4285 4.47748L81.0469 4.04023C81.3962 3.94586 81.3962 3.45573 81.0469 3.36135L79.4282 2.92404C79.3076 2.89145 79.2131 2.79859 79.1794 2.67946ZM54.5008 26.8885L53.9055 24.7849C53.7846 24.3575 53.1725 24.3563 53.0497 24.7832L52.4439 26.8896C52.4013 27.0379 52.2833 27.1533 52.1329 27.1937L50.0989 27.7408C49.6616 27.8584 49.6616 28.472 50.0989 28.5896L52.1326 29.1366C52.2831 29.177 52.4012 29.2926 52.4437 29.4411L53.0496 31.5568C53.172 31.9843 53.785 31.983 53.9056 31.555L54.501 29.4422C54.5431 29.2931 54.6612 29.1768 54.8122 29.136L56.8352 28.5895C57.2718 28.4715 57.2718 27.8589 56.8352 27.7409L54.8119 27.1942C54.6611 27.1535 54.543 27.0374 54.5008 26.8885ZM202.972 24.7849L203.568 26.8885C203.61 27.0374 203.728 27.1535 203.879 27.1942L205.902 27.7409C206.339 27.8589 206.339 28.4715 205.902 28.5895L203.879 29.136C203.728 29.1768 203.61 29.2931 203.568 29.4422L202.972 31.555C202.852 31.983 202.239 31.9843 202.116 31.5568L201.51 29.4411C201.468 29.2926 201.35 29.177 201.199 29.1366L199.166 28.5896C198.728 28.472 198.728 27.8584 199.166 27.7408L201.2 27.1937C201.35 27.1533 201.468 27.0379 201.511 26.8896L202.116 24.7832C202.239 24.3563 202.851 24.3575 202.972 24.7849ZM54.5008 226.542L53.9055 224.439C53.7846 224.011 53.1725 224.01 53.0497 224.437L52.4439 226.544C52.4013 226.692 52.2833 226.807 52.1329 226.848L50.0989 227.395C49.6616 227.512 49.6616 228.126 50.0989 228.243L52.1326 228.79C52.2831 228.831 52.4012 228.946 52.4437 229.095L53.0496 231.211C53.172 231.638 53.785 231.637 53.9056 231.209L54.501 229.096C54.5431 228.947 54.6612 228.831 54.8122 228.79L56.8352 228.243C57.2718 228.125 57.2718 227.513 56.8352 227.395L54.8119 226.848C54.6611 226.807 54.543 226.691 54.5008 226.542ZM202.972 224.439L203.568 226.542C203.61 226.691 203.728 226.807 203.879 226.848L205.902 227.395C206.339 227.513 206.339 228.125 205.902 228.243L203.879 228.79C203.728 228.831 203.61 228.947 203.568 229.096L202.972 231.209C202.852 231.637 202.239 231.638 202.116 231.211L201.51 229.095C201.468 228.946 201.35 228.831 201.199 228.79L199.166 228.243C198.728 228.126 198.728 227.512 199.166 227.395L201.2 226.848C201.35 226.807 201.468 226.692 201.511 226.544L202.116 224.437C202.239 224.01 202.851 224.011 202.972 224.439ZM228.207 201.586L227.611 199.482C227.49 199.055 226.878 199.053 226.756 199.48L226.15 201.587C226.107 201.735 225.989 201.85 225.839 201.891L223.805 202.438C223.367 202.555 223.367 203.169 223.805 203.287L225.838 203.834C225.989 203.874 226.107 203.99 226.15 204.138L226.755 206.254C226.878 206.681 227.491 206.68 227.611 206.252L228.207 204.139C228.249 203.99 228.367 203.874 228.518 203.833L230.541 203.287C230.978 203.169 230.978 202.556 230.541 202.438L228.518 201.891C228.367 201.851 228.249 201.735 228.207 201.586ZM29.2664 199.482L29.8617 201.586C29.9039 201.735 30.022 201.851 30.1727 201.891L32.1961 202.438C32.6327 202.556 32.6327 203.169 32.1961 203.287L30.1731 203.833C30.0221 203.874 29.9039 203.99 29.8619 204.139L29.2665 206.252C29.1459 206.68 28.5329 206.681 28.4104 206.254L27.8046 204.138C27.7621 203.99 27.644 203.874 27.4935 203.834L25.4598 203.287C25.0225 203.169 25.0225 202.555 25.4598 202.438L27.4938 201.891C27.6442 201.85 27.7622 201.735 27.8048 201.587L28.4106 199.48C28.5333 199.053 29.1454 199.055 29.2664 199.482ZM228.207 51.8453L227.611 49.7417C227.49 49.3143 226.878 49.313 226.756 49.7399L226.15 51.8464C226.107 51.9947 225.989 52.11 225.839 52.1505L223.805 52.6975C223.367 52.8151 223.367 53.4287 223.805 53.5463L225.838 54.0933C225.989 54.1338 226.107 54.2494 226.15 54.3978L226.755 56.5135C226.878 56.941 227.491 56.9398 227.611 56.5117L228.207 54.399C228.249 54.2498 228.367 54.1336 228.518 54.0928L230.541 53.5462C230.978 53.4282 230.978 52.8156 230.541 52.6976L228.518 52.151C228.367 52.1102 228.249 51.9942 228.207 51.8453ZM29.2664 49.7417L29.8617 51.8453C29.9039 51.9942 30.022 52.1102 30.1727 52.151L32.1961 52.6976C32.6327 52.8156 32.6327 53.4282 32.1961 53.5462L30.1731 54.0928C30.0221 54.1336 29.9039 54.2498 29.8619 54.399L29.2665 56.5117C29.1459 56.9398 28.5329 56.941 28.4104 56.5135L27.8046 54.3978C27.7621 54.2494 27.644 54.1338 27.4935 54.0933L25.4598 53.5463C25.0225 53.4287 25.0225 52.8151 25.4598 52.6975L27.4938 52.1505C27.6442 52.11 27.7622 51.9947 27.8048 51.8464L28.4106 49.7399C28.5333 49.313 29.1454 49.3143 29.2664 49.7417ZM253.338 126.962L252.743 124.858C252.622 124.431 252.01 124.43 251.887 124.857L251.281 126.963C251.239 127.111 251.121 127.227 250.97 127.267L248.936 127.814C248.499 127.932 248.499 128.545 248.936 128.663L250.97 129.21C251.12 129.251 251.239 129.366 251.281 129.515L251.887 131.63C252.009 132.058 252.622 132.057 252.743 131.628L253.338 129.516C253.38 129.367 253.499 129.25 253.649 129.21L255.673 128.663C256.109 128.545 256.109 127.932 255.673 127.814L253.649 127.268C253.498 127.227 253.38 127.111 253.338 126.962ZM4.13456 124.858L4.72989 126.962C4.77203 127.111 4.89012 127.227 5.04091 127.268L7.06424 127.814C7.50089 127.932 7.50089 128.545 7.06424 128.663L5.04122 129.21C4.89026 129.25 4.77209 129.367 4.73007 129.516L4.13469 131.628C4.01406 132.057 3.40103 132.058 3.2786 131.63L2.67279 129.515C2.63027 129.366 2.51219 129.251 2.36164 129.21L0.327979 128.663C-0.109326 128.545 -0.109327 127.932 0.327978 127.814L2.36196 127.267C2.51234 127.227 2.63033 127.111 2.67297 126.963L3.27874 124.857C3.40151 124.43 4.01359 124.431 4.13456 124.858Z" fill="#232424" />
</svg>
